<svg width="48" height="48" viewBox="0 0 48 48" fill="none" xmlns="http://www.w3.org/2000/svg">
<path d="M24 46C36.1503 46 46 36.1503 46 24C46 11.8497 36.1503 2 24 2C11.8497 2 2 11.8497 2 24C2 36.1503 11.8497 46 24 46Z" stroke="url(#paint0_linear)" stroke-width="4"/>
<path fill-rule="evenodd" clip-rule="evenodd" d="M29.273 22.7593L24.9881 19.769V14.9584L32.7322 20.3452L29.273 22.7593ZM31.0506 24L33.5236 22.2741V25.7256L31.0506 24ZM24.9881 28.2311L29.273 25.2408L32.7322 27.6548L24.9881 33.0417V28.2311ZM18.7267 25.2408L23.0116 28.2311V33.0417L15.2678 27.6548L18.7267 25.2408ZM16.9491 24L14.4764 25.7256V22.2741L16.9491 24ZM23.0116 19.769L18.7267 22.7593L15.2678 20.3452L23.0116 14.9584V19.769ZM24 26.4396L20.5043 24L24 21.5602L27.4957 24L24 26.4396ZM35.4833 20.1646C35.478 20.1352 35.4734 20.1064 35.4659 20.0779C35.4613 20.0608 35.4557 20.0447 35.4504 20.0278C35.4427 20.0026 35.435 19.9774 35.425 19.9525C35.4182 19.9357 35.4105 19.9189 35.4031 19.9024C35.3925 19.8792 35.3817 19.8562 35.3693 19.8339C35.3603 19.8174 35.3507 19.8019 35.3411 19.7861C35.3278 19.7648 35.3142 19.7438 35.2993 19.7234C35.2884 19.7085 35.2773 19.6937 35.2655 19.6791C35.25 19.6597 35.2333 19.6413 35.2163 19.6232C35.2033 19.6093 35.1903 19.5957 35.1769 19.5828C35.159 19.566 35.1401 19.5498 35.1209 19.534C35.106 19.522 35.0915 19.5098 35.076 19.4988C35.0707 19.4946 35.0654 19.4897 35.0599 19.4858L24.5479 12.1733C24.2162 11.9422 23.7835 11.9422 23.4518 12.1733L12.9401 19.4858C12.9343 19.4897 12.9293 19.4946 12.9237 19.4988C12.9082 19.5098 12.8937 19.522 12.8788 19.534C12.8599 19.5498 12.8407 19.566 12.8231 19.5828C12.8094 19.5957 12.7964 19.6093 12.7837 19.6232C12.7664 19.6413 12.75 19.6597 12.7342 19.6791C12.7224 19.6937 12.7112 19.7085 12.7004 19.7234C12.6855 19.7438 12.6719 19.7648 12.6586 19.7861C12.649 19.8019 12.6394 19.8174 12.6307 19.8339C12.618 19.8562 12.6072 19.8792 12.5969 19.9024C12.5895 19.9189 12.5815 19.9357 12.575 19.9525C12.5654 19.9774 12.557 20.0026 12.5492 20.0278C12.544 20.0447 12.5384 20.0608 12.5341 20.0779C12.5269 20.1064 12.5217 20.1352 12.5167 20.1646C12.5142 20.1794 12.5108 20.194 12.5087 20.2088C12.5031 20.2534 12.5 20.2984 12.5 20.3436V27.6561C12.5 27.7017 12.5031 27.7463 12.5087 27.7909C12.5108 27.8061 12.5142 27.8206 12.5167 27.8355C12.5217 27.8643 12.5269 27.8934 12.5341 27.9218C12.5384 27.9389 12.544 27.9554 12.5492 27.9719C12.557 27.9974 12.5654 28.0227 12.575 28.0475C12.5815 28.0647 12.5895 28.0808 12.5969 28.0973C12.6072 28.1206 12.618 28.1435 12.6307 28.1662C12.6394 28.1823 12.649 28.1982 12.6586 28.2133C12.6719 28.235 12.6855 28.2557 12.7004 28.2764C12.7112 28.2919 12.7224 28.3064 12.7342 28.321C12.75 28.34 12.7664 28.3588 12.7837 28.3766C12.7964 28.3901 12.8094 28.404 12.8231 28.4166C12.8407 28.4338 12.8599 28.4503 12.8788 28.4661C12.8937 28.478 12.9082 28.49 12.9237 28.5013C12.9293 28.5055 12.9343 28.51 12.9401 28.5139L23.4518 35.8264C23.6178 35.9421 23.8086 36 24 36C24.1911 36 24.3822 35.9421 24.5479 35.8264L35.0599 28.5139C35.0654 28.51 35.0707 28.5055 35.076 28.5013C35.0915 28.49 35.106 28.478 35.1209 28.4661C35.1401 28.4503 35.159 28.4338 35.1769 28.4166C35.1903 28.404 35.2033 28.3901 35.2163 28.3766C35.2333 28.3588 35.25 28.34 35.2655 28.321C35.2773 28.3064 35.2884 28.2919 35.2993 28.2764C35.3142 28.2557 35.3278 28.235 35.3411 28.2133C35.3507 28.1982 35.3603 28.1823 35.3693 28.1662C35.3817 28.1435 35.3925 28.1206 35.4031 28.0973C35.4105 28.0808 35.4182 28.0647 35.425 28.0475C35.435 28.0227 35.4427 27.9974 35.4504 27.9719C35.4557 27.9554 35.4613 27.9389 35.4659 27.9218C35.4734 27.8934 35.478 27.8643 35.4833 27.8355C35.4858 27.8206 35.4892 27.8061 35.491 27.7909C35.4966 27.7463 35.5 27.7017 35.5 27.6561V20.3436C35.5 20.2984 35.4966 20.2534 35.491 20.2088C35.4892 20.194 35.4858 20.1794 35.4833 20.1646Z" fill="white"/>
<defs>
<linearGradient id="paint0_linear" x1="24" y1="2" x2="24" y2="46" gradientUnits="userSpaceOnUse">
<stop stop-color="#F2A057"/>
<stop offset="0.486648" stop-color="#F2762E"/>
<stop offset="1" stop-color="#D93D1A"/>
</linearGradient>
</defs>
</svg>
