<svg width="48" height="48" viewBox="0 0 48 48" fill="none" xmlns="http://www.w3.org/2000/svg">
<path d="M24 46C36.1503 46 46 36.1503 46 24C46 11.8497 36.1503 2 24 2C11.8497 2 2 11.8497 2 24C2 36.1503 11.8497 46 24 46Z" stroke="url(#paint0_linear)" stroke-width="4"/>
<path fill-rule="evenodd" clip-rule="evenodd" d="M34.7762 21.7863C34.6326 21.0788 34.4153 20.3829 34.1346 19.7181C33.8604 19.0662 33.5176 18.4376 33.1204 17.8504C32.7272 17.2683 32.2757 16.7199 31.779 16.2232C31.2809 15.7253 30.7338 15.2739 30.1504 14.8807C29.5631 14.4823 28.9344 14.1421 28.2824 13.8653C27.6175 13.5859 26.9216 13.3673 26.2153 13.2251C25.4909 13.0763 24.7458 13 24.0006 13C23.2542 13 22.5091 13.0763 21.7847 13.2251C21.0784 13.3673 20.3825 13.5859 19.7176 13.8653C19.0656 14.1421 18.4369 14.4823 17.8484 14.8807C17.2662 15.2739 16.7191 15.7253 16.221 16.2232C15.723 16.7199 15.2728 17.2683 14.8796 17.8504C14.4812 18.4376 14.1396 19.0662 13.8641 19.7181C13.5834 20.3829 13.3674 21.0788 13.2225 21.7863C13.075 22.508 13 23.2543 13 23.9994C13 24.7457 13.075 25.492 13.2225 26.2163C13.3674 26.9212 13.5834 27.6184 13.8641 28.2819C14.1396 28.9338 14.4812 29.5637 14.8796 30.1522C15.2728 30.7343 15.723 31.2801 16.221 31.7781C16.7191 32.276 17.2662 32.7261 17.8484 33.1193C18.4369 33.5177 19.0656 33.8592 19.7176 34.1347C20.3825 34.4154 21.0784 34.6301 21.7847 34.7749C22.5091 34.925 23.2542 35 24.0006 35C24.7458 35 25.4909 34.925 26.2153 34.7749C26.9216 34.6301 27.6175 34.4154 28.2824 34.1347C28.9344 33.8592 29.5631 33.5177 30.1504 33.1193C30.7338 32.7261 31.2809 32.276 31.779 31.7781C32.2757 31.2801 32.7272 30.7343 33.1204 30.1522C33.5176 29.5637 33.8604 28.9338 34.1346 28.2819C34.4153 27.6184 34.6326 26.9212 34.7762 26.2163C34.925 25.492 35 24.7457 35 23.9994C35 23.2543 34.925 22.508 34.7762 21.7863ZM33.3921 23.9062C33.2562 23.8765 30.0766 23.1923 26.8491 23.5984C26.7819 23.438 26.7146 23.2763 26.646 23.1146C26.4494 22.6542 26.2398 22.1989 26.0212 21.7514C29.7312 20.2368 31.237 18.0586 31.2551 18.0327C32.5719 19.634 33.3701 21.6776 33.3921 23.9062ZM30.2047 16.9501C30.1814 16.9864 28.8438 19.0235 25.2968 20.3519C23.6915 17.4016 21.927 15.0579 21.786 14.8716C22.4962 14.6996 23.2374 14.6064 24.0006 14.6064C26.3783 14.6064 28.5489 15.4937 30.2047 16.9501ZM21.7498 14.8794C21.7498 14.8807 21.7485 14.8807 21.7485 14.8807C21.7485 14.8807 21.7369 14.8832 21.7201 14.8871C21.7291 14.8845 21.7395 14.8832 21.7498 14.8794ZM19.9918 15.5041C20.116 15.6722 21.8546 18.0263 23.4806 20.9171C18.9699 22.1161 15.0542 22.0683 14.8058 22.0644C15.4164 19.1542 17.371 16.7419 19.9918 15.5041ZM14.6053 23.9994C14.6053 23.8998 14.6105 23.8015 14.6131 23.7032C14.7787 23.707 19.4214 23.8118 24.2581 22.3645C24.5271 22.8909 24.7846 23.4264 25.02 23.9606C24.8958 23.9955 24.7729 24.033 24.65 24.0731C19.5805 25.7119 17.0088 30.2725 17.0088 30.2725C17.0088 30.2725 17.0127 30.2764 17.0127 30.2777C15.516 28.613 14.6053 26.4129 14.6053 23.9994ZM24.0006 33.3936C21.7265 33.3936 19.6413 32.5852 18.0152 31.2413C18.1394 31.3409 18.2261 31.4056 18.2261 31.4056C18.2261 31.4056 20.0268 27.4787 25.5982 25.5372C25.6189 25.5295 25.6396 25.523 25.6616 25.5166C26.9837 28.9519 27.5283 31.8285 27.668 32.6498C26.5412 33.1284 25.3007 33.3936 24.0006 33.3936ZM29.25 31.791C29.1543 31.2245 28.6537 28.4669 27.4209 25.082C30.4543 24.5969 33.0816 25.4286 33.2757 25.492C32.8578 28.1086 31.3586 30.3669 29.25 31.791Z" fill="white"/>
<defs>
<linearGradient id="paint0_linear" x1="24" y1="2" x2="24" y2="46" gradientUnits="userSpaceOnUse">
<stop stop-color="#F2A057"/>
<stop offset="0.512375" stop-color="#F2762E"/>
<stop offset="1" stop-color="#D93D1A"/>
</linearGradient>
</defs>
</svg>
