<svg width="48" height="48" viewBox="0 0 48 48" fill="none" xmlns="http://www.w3.org/2000/svg">
<path d="M24 46C36.1503 46 46 36.1503 46 24C46 11.8497 36.1503 2 24 2C11.8497 2 2 11.8497 2 24C2 36.1503 11.8497 46 24 46Z" stroke="url(#paint0_linear)" stroke-width="4"/>
<path fill-rule="evenodd" clip-rule="evenodd" d="M14.5045 20.4131H18.4026V33.9987H14.5045V20.4131ZM16.3542 18.7138H16.326C14.9149 18.7138 14 17.6752 14 16.3601C14 15.0181 14.9419 14 16.3812 14C17.8194 14 18.7037 15.0155 18.7319 16.3563C18.7319 17.6714 17.8194 18.7138 16.3542 18.7138ZM34 34H29.5797V26.9684C29.5797 25.1282 28.8883 23.8732 27.3678 23.8732C26.2048 23.8732 25.5581 24.7197 25.2571 25.538C25.1442 25.8299 25.1618 26.2384 25.1618 26.6482V34H20.7827C20.7827 34 20.8391 21.5451 20.7827 20.4131H25.1618V22.5453C25.4205 21.613 26.8198 20.2825 29.0529 20.2825C31.8234 20.2825 34 22.2379 34 26.4446V34Z" fill="white"/>
<defs>
<linearGradient id="paint0_linear" x1="24" y1="2" x2="24" y2="46" gradientUnits="userSpaceOnUse">
<stop stop-color="#F2A057"/>
<stop offset="0.470964" stop-color="#F2762E"/>
<stop offset="1" stop-color="#D93D1A"/>
</linearGradient>
</defs>
</svg>
